<?xml version="1.0" encoding="UTF-8"?>
<svg xmlns="http://www.w3.org/2000/svg" version="1.1" viewBox="0 0 32 32">
  <defs>
    <style>
      .cls-1 {
        fill: #fff;
      }
    </style>
  </defs>
  <!-- Generator: Adobe Illustrator 28.6.0, SVG Export Plug-In . SVG Version: 1.2.0 Build 709)  -->
  <g>
    <g id="Layer_1">
      <g id="belt_pouch">
        <path class="cls-1" d="M29,11H3c-.6,0-1,.4-1,1v4.2c0,.9.5,1.6,1.3,2l6.6,3.3c.6.3,1.2.4,1.9.4h8.5c.6,0,1.3-.2,1.9-.4l6.6-3.3c.8-.4,1.2-1.1,1.3-2v-4.2c0-.6-.4-1-1-1h0ZM28,16.2c0,.1,0,.2-.2.2l-6.6,3.3c-.3.2-.7.2-1,.2h-8.5c-.3,0-.7,0-1-.2l-6.6-3.3c0,0-.2-.1-.2-.2v-3.2h24v3.2Z"/>
        <path class="cls-1" d="M11,16h1c0,.6.4,1,1,1s1-.4,1-1h7c.6,0,1-.4,1-1s-.4-1-1-1h-10c-.6,0-1,.4-1,1s.4,1,1,1Z"/>
      </g>
    </g>
  </g>
</svg>