<?xml version="1.0" encoding="UTF-8"?>
<svg xmlns="http://www.w3.org/2000/svg" version="1.1" viewBox="0 0 32 32">
  <defs>
    <style>
      .cls-1 {
        fill: #fff;
      }
    </style>
  </defs>
  <!-- Generator: Adobe Illustrator 28.6.0, SVG Export Plug-In . SVG Version: 1.2.0 Build 709)  -->
  <g>
    <g id="Layer_1">
      <g id="shoe">
        <path class="cls-1" d="M25.1,12c-.5,0-1,0-1.5,0-.5,0-1,0-1.5,0-1.3-.1-2.5-.4-3.7-.9-.8-.4-1.6-.9-2.3-1.4-1.2-.9-2.8-.9-3.9.1-.8.8-2,1.2-3.1,1.2-1.3,0-2.4-.7-3.3-1.6-.4-.4-1-.5-1.4-.1,0,0-.2.2-.2.2-1.6,2.5-2.4,5.5-2.2,8.5v2.5c0,1.4,1.1,2.5,2.5,2.5,0,0,0,0,0,0h20.4c2.8,0,5-2.2,5-5v-.7c0-2.8-2.1-5.1-4.9-5.3ZM14.9,11.2c.8.7,1.8,1.3,2.8,1.7h.3c-.6.2-1.2.2-1.8.1-1.1-.2-2.1-.7-3-1.4.1-.1.3-.2.5-.4.4-.3.9-.3,1.2,0ZM5.3,11.6c1,.8,2.1,1.3,3.4,1.4,1.3.9,2.2,2.4,2.3,4h-7v-.9c.1-1.6.6-3.1,1.3-4.5ZM25,21H4.6c-.3,0-.5-.2-.6-.5,0,0,0,0,0,0v-1.5h7.3c.3,0,.6,0,.9.2l.7.4c.6.3,1.2.4,1.8.4h9.2c1.3,0,2.5-.2,3.7-.5-.5.9-1.5,1.5-2.6,1.5ZM23.9,18h-9.1c-.3,0-.6,0-.9-.2l-.7-.4h0c0-1.4-.4-2.8-1.2-3.9-.1-.2-.3-.4-.4-.6,1.2,1.1,2.8,1.9,4.4,2.1.4,0,.9.1,1.3.1,1.5,0,3-.4,4.2-1.2h.6c.6,0,1.2,0,1.7,0,.4,0,.8,0,1.3,0,1.7.2,3,1.6,3,3.3h-.3c-1.2.5-2.5.7-3.7.7h0Z"/>
      </g>
    </g>
  </g>
</svg>