<svg xmlns="http://www.w3.org/2000/svg" viewBox="0 0 32 32"><g id="shoe"><path d="M25.11,12a10.82,10.82,0,0,0-1.54,0,8.82,8.82,0,0,1-1.45,0,11.83,11.83,0,0,1-3.67-.91,10.33,10.33,0,0,1-2.32-1.44,3,3,0,0,0-3.94.13A4.39,4.39,0,0,1,9.07,11,4.57,4.57,0,0,1,5.81,9.36a1,1,0,0,0-1.62.12A13.87,13.87,0,0,0,2,18v2.47A2.54,2.54,0,0,0,4.57,23H25a5,5,0,0,0,5-5v-.72A5.31,5.31,0,0,0,25.11,12Zm-10.25-.8a12.39,12.39,0,0,0,2.77,1.71l.27.12a6.07,6.07,0,0,1-1.75,0,6.38,6.38,0,0,1-3-1.38c.15-.12.31-.25.46-.39A1,1,0,0,1,14.86,11.2Zm-9.57.41A6.38,6.38,0,0,0,8.66,13,5.4,5.4,0,0,1,11,17H4c0-.31,0-.62,0-.92A12.12,12.12,0,0,1,5.29,11.61ZM25,21H4.57A.53.53,0,0,1,4,20.47V19h7.27a2.12,2.12,0,0,1,.93.22l.7.35a4.14,4.14,0,0,0,1.83.43h9.17a14,14,0,0,0,3.7-.5A3,3,0,0,1,25,21Zm-1.1-3H14.77a2.09,2.09,0,0,1-.93-.22l-.7-.35-.09,0a7.64,7.64,0,0,0-1.17-3.94,6.37,6.37,0,0,0-.44-.62A8.43,8.43,0,0,0,15.85,15a8.16,8.16,0,0,0,1.28.1,8.45,8.45,0,0,0,4.25-1.16L22,14a12.51,12.51,0,0,0,1.73,0A7.6,7.6,0,0,1,25,14,3.3,3.3,0,0,1,28,17.28l-.33.11A12,12,0,0,1,23.94,18Z"/></g></svg>