<svg xmlns="http://www.w3.org/2000/svg" viewBox="0 0 32 32"><g id="shorts"><path d="M30,18h0A38.67,38.67,0,0,0,29,9.9V7a1,1,0,0,0-1-1H4A1,1,0,0,0,3,7V9.9A38.67,38.67,0,0,0,2,18c-.05,3.78-.12,8.08,2.65,9.55A3.92,3.92,0,0,0,6.54,28h6a1.67,1.67,0,0,0,1.6-1.21L15.74,21h.52l1.63,5.79A1.67,1.67,0,0,0,19.49,28H25.3a4.1,4.1,0,0,0,2.05-.45C30.12,26.07,30.05,21.77,30,18ZM27,8V9.14a72.13,72.13,0,0,1-22,0V8ZM13.86,20.3,12.26,26H6.64a2.11,2.11,0,0,1-1-.22C3.9,24.88,4,20.91,4,18a35.88,35.88,0,0,1,.77-6.87A74.41,74.41,0,0,0,15,12v7s0,.06,0,.09A1.8,1.8,0,0,0,13.86,20.3Zm12.55,5.48a2,2,0,0,1-1.08.22H19.74l-1.6-5.7A1.8,1.8,0,0,0,17,19.09S17,19,17,19V12a74.41,74.41,0,0,0,10.23-.84A35.88,35.88,0,0,1,28,18h0C28,20.91,28.1,24.88,26.41,25.78Z"/></g></svg>