<?xml version="1.0" encoding="UTF-8"?>
<svg xmlns="http://www.w3.org/2000/svg" version="1.1" viewBox="0 0 32 32">
  <defs>
    <style>
      .cls-1 {
        fill: #fff;
      }
    </style>
  </defs>
  <!-- Generator: Adobe Illustrator 28.6.0, SVG Export Plug-In . SVG Version: 1.2.0 Build 709)  -->
  <g>
    <g id="Layer_1">
      <g id="shorts">
        <path class="cls-1" d="M30,18h0c0-2.7-.4-5.4-1-8.1v-2.9c0-.6-.4-1-1-1H4c-.6,0-1,.4-1,1v2.9c-.6,2.7-1,5.4-1,8.1,0,3.8-.1,8.1,2.7,9.5.6.3,1.2.5,1.9.5h6c.7,0,1.4-.5,1.6-1.2l1.6-5.8h.5l1.6,5.8c.2.7.9,1.2,1.6,1.2h5.8c.7,0,1.4-.1,2-.5,2.8-1.5,2.7-5.8,2.7-9.5ZM27,8v1.1c-7.3,1.1-14.7,1.1-22,0v-1.1h22ZM13.9,20.3l-1.6,5.7h-5.6c-.3,0-.7,0-1-.2-1.7-.9-1.6-4.9-1.6-7.8,0-2.3.3-4.6.8-6.9,3.4.5,6.8.8,10.2.9v7h0c-.6.3-1,.7-1.1,1.3ZM26.4,25.8c-.3.2-.7.2-1.1.2h-5.6l-1.6-5.7c-.2-.6-.6-1-1.1-1.2h0v-7.1c3.4,0,6.8-.3,10.2-.8.5,2.3.7,4.5.8,6.8h0c0,2.9.1,6.9-1.6,7.8Z"/>
      </g>
    </g>
  </g>
</svg>