<svg xmlns="http://www.w3.org/2000/svg" viewBox="0 0 32 32"><g id="tshirt"><path d="M29.87,12.5l-4-7,0,0a.39.39,0,0,0-.08-.1,1,1,0,0,0-.18-.17l0,0s-.05,0-.07,0l-.1-.06-5-2a1,1,0,0,0-.93.1A1,1,0,0,0,19,4a3,3,0,0,1-6,0,1,1,0,0,0-.44-.83,1,1,0,0,0-.93-.1l-5,2-.1.06s0,0-.07,0l0,0a1,1,0,0,0-.18.17.39.39,0,0,0-.08.1l0,0-4,7a1,1,0,0,0-.09.79,1,1,0,0,0,.51.6L8,16.62v8a3.26,3.26,0,0,0,1.83,2.93,14.21,14.21,0,0,0,12.32,0A3.27,3.27,0,0,0,24,24.66v-8l5.45-2.73a1,1,0,0,0,.51-.6A1,1,0,0,0,29.87,12.5ZM20.8,5.4l2.75,1.1a14,14,0,0,0-.88,2L20.22,6.66A5.15,5.15,0,0,0,20.8,5.4Zm-9,1.26L9.33,8.5a14,14,0,0,0-.88-2L11.2,5.4A5.15,5.15,0,0,0,11.78,6.66ZM8,14.38l-3.61-1.8L7,8.05a10.47,10.47,0,0,1,1,4c0,.31,0,.61,0,.9v1.43ZM22,24.66a1.25,1.25,0,0,1-.71,1.14A12.15,12.15,0,0,1,16,27a12.38,12.38,0,0,1-5.31-1.21A1.25,1.25,0,0,1,10,24.66V13h0c0-.34,0-.69,0-1.05a10.17,10.17,0,0,0-.15-1.34l3.33-2.5a4.91,4.91,0,0,0,5.64,0l3.33,2.5A10.17,10.17,0,0,0,22,12c0,.36,0,.71,0,1.05h0Zm2-10.28V13c0-.29,0-.59,0-.9a10.47,10.47,0,0,1,1-4l2.59,4.53Z"/><path d="M17,12H15a1,1,0,0,0,0,2h2a1,1,0,0,0,0-2Z"/></g></svg>