<?xml version="1.0" encoding="UTF-8"?>
<svg xmlns="http://www.w3.org/2000/svg" version="1.1" viewBox="0 0 32 32">
  <defs>
    <style>
      .cls-1 {
        fill: #fff;
      }
    </style>
  </defs>
  <!-- Generator: Adobe Illustrator 28.6.0, SVG Export Plug-In . SVG Version: 1.2.0 Build 709)  -->
  <g>
    <g id="Layer_1">
      <g id="tshirt">
        <path class="cls-1" d="M29.9,12.5l-4-7h0s0,0,0,0c0,0-.1-.1-.2-.2h-.2c0,0-5-2.1-5-2.1-.3-.1-.7,0-.9,0-.3.2-.5.4-.5.7,0,1.7-1.3,3-3,3s-3-1.3-3-3c0-.3-.2-.6-.4-.8-.3-.2-.6-.2-.9,0l-5,2h0q0,0,0,0h0c0,0-.1.1-.2.2,0,0,0,0,0,0h0l-4,7c-.1.2-.2.5,0,.8,0,.3.3.5.5.6l5.4,2.8v8c0,1.2.7,2.4,1.8,2.9,3.9,1.9,8.4,1.9,12.3,0,1.1-.5,1.8-1.7,1.9-2.9v-8l5.5-2.7c.2-.1.4-.3.5-.6,0-.3,0-.6,0-.8ZM20.8,5.4l2.8,1.1c-.3.6-.6,1.3-.9,2l-2.5-1.8c.2-.4.4-.8.6-1.3ZM11.8,6.7l-2.5,1.8c-.2-.7-.5-1.4-.9-2l2.8-1.1c.1.4.3.9.6,1.3h0ZM8,14.4l-3.6-1.8,2.6-4.5c.6,1.3.9,2.6,1,4v2.3ZM22,24.7c0,.5-.3.9-.7,1.1-1.7.8-3.5,1.2-5.3,1.2-1.8,0-3.7-.4-5.3-1.2-.4-.2-.7-.7-.7-1.1v-11.7h0v-1.1c0-.4,0-.9-.1-1.3l3.3-2.5c1.7,1.2,3.9,1.2,5.6,0l3.3,2.5c0,.5-.1.9-.1,1.4v1.1h0v11.6ZM24,14.4v-2.3c0-1.4.4-2.7,1-4l2.6,4.5-3.6,1.7Z"/>
        <path class="cls-1" d="M17,12h-2c-.6,0-1,.4-1,1s.4,1,1,1h2c.6,0,1-.4,1-1s-.4-1-1-1Z"/>
      </g>
    </g>
  </g>
</svg>